<?xml version="1.0" encoding="UTF-8"?>
<svg xmlns="http://www.w3.org/2000/svg" width="236.25" height="236.25" viewBox="0 0 135.0 135.0">
  <g>
    <path d="M36.5,0.5L98.5,0.5A36,36 0,0 1,134.5 36.5L134.5,98.5A36,36 0,0 1,98.5 134.5L36.5,134.5A36,36 0,0 1,0.5 98.5L0.5,36.5A36,36 0,0 1,36.5 0.5z" fill="#FFFFFF" stroke="#979797" stroke-width="1.0" fill-opacity="0.1828443" stroke-opacity="0.1828443" />
    <path d="M110.6,51.3L98.22,51.3C93.09,51.3 88.93,55.45 88.93,60.58L88.93,72.96C88.93,78.09 93.09,82.25 98.22,82.25L110.6,82.25C115.72,82.25 119.88,78.09 119.88,72.96L119.88,60.58C119.88,55.45 115.72,51.3 110.6,51.3Z" fill="#FFEFEA" stroke-width="1.0" />
    <path d="M110.43,75.88C112.48,75.88 114.15,74.21 114.15,72.15C114.15,70.1 112.48,68.43 110.43,68.43C108.37,68.43 106.7,70.1 106.7,72.15C106.7,74.21 108.37,75.88 110.43,75.88L110.43,75.88ZM110.05,69.28C110.42,69.23 110.81,69.26 111.18,69.36L110.93,70.26C110.43,70.12 109.89,70.19 109.44,70.45L108.98,69.64C109.31,69.45 109.67,69.33 110.05,69.28L110.05,69.28ZM111.97,69.7C112.62,70.11 113.08,70.76 113.25,71.51L112.34,71.72C112.23,71.21 111.91,70.77 111.47,70.49L111.97,69.7L111.97,69.7ZM113.32,72.15C113.32,72.92 113.02,73.66 112.48,74.2L111.81,73.54C112.18,73.18 112.39,72.68 112.39,72.15L113.32,72.15ZM111.87,74.66C111.21,75.05 110.42,75.15 109.68,74.95L109.92,74.05C110.42,74.19 110.96,74.12 111.41,73.86L111.87,74.66L111.87,74.66ZM108.13,73.92C107.89,73.62 107.72,73.27 107.63,72.9L108.53,72.66C108.66,73.17 108.99,73.6 109.44,73.86L108.98,74.66C108.65,74.47 108.36,74.22 108.13,73.92L108.13,73.92ZM107.53,72.15C107.53,71.39 107.83,70.65 108.38,70.11L109.04,70.77C108.67,71.13 108.46,71.63 108.46,72.15L107.53,72.15L107.53,72.15Z" fill="#FFA370" stroke-width="1.0" />
    <path d="M97.59,64.7C97.59,64.18 97.84,63.69 98.25,63.38L103.22,59.65C103.81,59.21 104.62,59.21 105.21,59.65L110.18,63.38C110.59,63.69 110.84,64.18 110.84,64.7L110.84,65.94L97.59,65.94L97.59,64.7L97.59,64.7Z" fill="#FF7B31" stroke-width="1.0" />
    <path d="M99.55,63.76L102.66,61.33C102.91,61.14 103.12,61.17 103.31,61.41L103.31,61.41C103.5,61.65 103.47,61.87 103.23,62.06L100.12,64.49C99.88,64.68 99.66,64.65 99.47,64.41L99.47,64.41C99.28,64.17 99.31,63.95 99.55,63.76Z" fill="#FFFFFF" stroke-width="1.0" />
    <path d="M103.64,60.51L103.64,60.5C103.88,60.32 104.1,60.34 104.28,60.58L104.28,60.58C104.47,60.82 104.44,61.04 104.2,61.22L104.2,61.22C103.96,61.41 103.75,61.38 103.56,61.15L103.56,61.14C103.38,60.91 103.4,60.69 103.64,60.51Z" fill="#FFFFFF" stroke-width="1.0" />
    <path d="M97.59,72.57L97.59,66.77L110.84,66.77L110.84,67.68C109.15,67.34 107.43,68.07 106.51,69.53C105.59,70.98 105.67,72.85 106.7,74.22L99.25,74.22C98.33,74.22 97.59,73.48 97.59,72.57ZM100.07,69.26C99.86,69.26 99.64,69.34 99.49,69.5C99.33,69.65 99.25,69.87 99.25,70.08L99.25,71.74C99.25,71.96 99.33,72.17 99.49,72.33C99.64,72.48 99.86,72.57 100.07,72.57L101.73,72.57C101.95,72.57 102.16,72.48 102.32,72.33C102.47,72.17 102.56,71.96 102.56,71.74L102.56,70.08C102.56,69.63 102.19,69.26 101.73,69.26L100.07,69.26L100.07,69.26Z" fill="#FF7B31" stroke-width="1.0" />
    <path d="M110.6,14.39L98.22,14.39C93.09,14.39 88.93,18.55 88.93,23.68L88.93,36.06C88.93,41.18 93.09,45.34 98.22,45.34L110.6,45.34C115.73,45.34 119.88,41.18 119.88,36.06L119.88,23.68C119.88,18.55 115.73,14.39 110.6,14.39Z" fill="#D8F4EE" stroke-width="1.0" />
    <path d="M100.2,22.59C100.2,22.17 100.54,21.82 100.96,21.82C101.38,21.82 101.73,22.17 101.73,22.59L101.73,24.12C101.73,24.54 101.38,24.89 100.96,24.89C100.54,24.89 100.2,24.54 100.2,24.12L100.2,22.59L100.2,22.59ZM106.32,22.59L102.49,22.59L102.49,24.89C102.49,25.09 102.41,25.29 102.27,25.43C102.13,25.57 101.93,25.65 101.73,25.65L100.2,25.65C99.99,25.65 99.8,25.57 99.65,25.43C99.51,25.29 99.43,25.09 99.43,24.89L99.43,22.59L98.66,22.59C98.26,22.59 97.87,22.75 97.58,23.04C97.29,23.33 97.13,23.72 97.13,24.12L97.13,36.38C97.13,37.22 97.82,37.91 98.66,37.91L110.15,37.91C110.25,37.91 110.34,37.9 110.43,37.88C108.77,37.71 107.33,36.64 106.68,35.09C106.03,33.55 106.28,31.77 107.32,30.46C108.36,29.14 110.03,28.5 111.68,28.78L111.68,24.12C111.68,23.28 111,22.59 110.15,22.59L109.39,22.59L109.39,24.89C109.39,25.09 109.31,25.29 109.16,25.43C109.02,25.57 108.82,25.65 108.62,25.65L107.09,25.65C106.89,25.65 106.69,25.57 106.55,25.43C106.4,25.29 106.32,25.09 106.32,24.89L106.32,22.59L106.32,22.59ZM107.85,21.82C107.43,21.82 107.09,22.17 107.09,22.59L107.09,24.12C107.09,24.54 107.43,24.89 107.86,24.89C108.28,24.89 108.62,24.54 108.62,24.12L108.62,22.59C108.62,22.39 108.54,22.19 108.4,22.05C108.25,21.9 108.06,21.82 107.85,21.82L107.85,21.82ZM98.66,27.57C98.66,27.36 98.84,27.19 99.05,27.19L109,27.19C109.21,27.19 109.39,27.36 109.39,27.57C109.39,27.78 109.21,27.95 109,27.95L99.05,27.95C98.84,27.95 98.66,27.78 98.66,27.57L98.66,27.57ZM99.05,31.02C98.84,31.02 98.66,30.84 98.66,30.63C98.66,30.42 98.84,30.25 99.05,30.25L104.41,30.25C104.62,30.25 104.79,30.42 104.79,30.63C104.79,30.84 104.62,31.02 104.41,31.02L99.05,31.02L99.05,31.02ZM98.66,33.7C98.66,33.48 98.84,33.31 99.05,33.31L104.41,33.31C104.55,33.31 104.67,33.39 104.74,33.5C104.81,33.62 104.81,33.77 104.74,33.89C104.67,34.01 104.55,34.08 104.41,34.08L99.05,34.08C98.83,34.08 98.66,33.91 98.66,33.7L98.66,33.7Z" fill="#01C3A3" stroke-width="1.0" />
    <path d="M111.13,37.1C113.13,37.1 114.75,35.48 114.75,33.49C114.75,31.49 113.13,29.87 111.13,29.87C109.13,29.87 107.51,31.49 107.51,33.49C107.51,35.48 109.13,37.1 111.13,37.1L111.13,37.1ZM111.94,33.91L112.89,34.86C112.99,34.96 112.98,35.13 112.88,35.24C112.78,35.34 112.61,35.34 112.5,35.24L111.55,34.29C110.85,34.79 109.9,34.66 109.35,34.01C108.8,33.36 108.84,32.4 109.44,31.79C110.05,31.19 111.01,31.15 111.66,31.7C112.31,32.25 112.43,33.21 111.94,33.91L111.94,33.91ZM111.69,32.95C111.69,33.56 111.2,34.05 110.6,34.05C109.99,34.05 109.51,33.56 109.51,32.95C109.51,32.35 109.99,31.86 110.6,31.86C111.2,31.86 111.69,32.35 111.69,32.95L111.69,32.95Z" fill="#75E8CD" stroke-width="1.0" />
    <path d="M109.92,33.49C109.92,33.26 110.1,33.08 110.33,33.08C110.55,33.08 110.73,33.26 110.73,33.49C110.73,33.71 110.55,33.89 110.33,33.89C110.1,33.89 109.92,33.71 109.92,33.49L109.92,33.49Z" fill="#FFFFFF" stroke-width="1.0" />
    <path d="M73.69,14.39L61.31,14.39C56.18,14.39 52.03,18.55 52.03,23.68L52.03,36.06C52.03,41.18 56.18,45.34 61.31,45.34L73.69,45.34C78.82,45.34 82.98,41.18 82.98,36.06L82.98,23.68C82.98,18.55 78.82,14.39 73.69,14.39Z" fill="#FED9FF" stroke-width="1.0" />
    <path d="M66.89,27.18C67.07,27.11 67.28,27.1 67.46,27.17L75.7,30.02C76.4,30.26 76.43,31.24 75.75,31.53L67.49,35.02C67.29,35.11 67.06,35.11 66.86,35.03L59.26,31.86C58.59,31.58 58.59,30.64 59.26,30.36L66.89,27.19L66.89,27.18Z" fill="#F094FF" stroke-width="1.0" fill-opacity="0.5" />
    <path d="M66.89,31.23C67.07,31.15 67.28,31.15 67.46,31.21L75.7,34.06C76.4,34.3 76.43,35.28 75.75,35.57L67.49,39.07C67.29,39.15 67.06,39.15 66.86,39.07L59.26,35.9C58.59,35.63 58.59,34.69 59.26,34.41L66.89,31.23L66.89,31.23Z" fill="#F094FF" stroke-width="1.0" fill-opacity="0.3" />
    <path d="M66.89,23.14C67.07,23.06 67.28,23.06 67.46,23.12L75.7,25.97C76.4,26.22 76.43,27.19 75.75,27.48L67.49,30.98C67.29,31.06 67.06,31.06 66.86,30.98L59.26,27.81C58.59,27.54 58.59,26.6 59.26,26.32L66.89,23.14L66.89,23.14Z" fill="#C862D9" stroke-width="1.0" />
    <path d="M60.91,26.85C61.03,26.52 61.39,26.35 61.72,26.47L65.49,27.78C65.81,27.91 65.98,28.26 65.86,28.58C65.75,28.91 65.4,29.08 65.08,28.98L61.3,27.66C60.97,27.54 60.8,27.18 60.91,26.85L60.91,26.85ZM66.73,28.94C66.86,28.59 67.25,28.41 67.6,28.53C67.95,28.65 68.14,29.04 68.03,29.39C67.95,29.63 67.75,29.81 67.51,29.85C67.26,29.9 67.01,29.81 66.85,29.62C66.69,29.44 66.64,29.17 66.73,28.94L66.73,28.94Z" fill="#FFFFFF" stroke-width="1.0" />
    <path d="M23.12,14.39L38.07,14.39A8,8 0,0 1,46.07 22.39L46.07,37.34A8,8 0,0 1,38.07 45.34L23.12,45.34A8,8 0,0 1,15.12 37.34L15.12,22.39A8,8 0,0 1,23.12 14.39z" fill="#E3F0FF" stroke-width="1.0" />
    <path d="M25.84,21.21C25.36,21.21 24.97,21.6 24.97,22.08L36.22,22.08C36.45,22.08 36.67,22.17 36.83,22.33C36.99,22.49 37.09,22.71 37.09,22.94L37.09,36.79C37.56,36.79 37.95,36.4 37.95,35.92L37.95,22.08C37.95,21.6 37.56,21.21 37.09,21.21L25.84,21.21Z" fill="#6CB0FF" stroke-width="1.0" />
    <path d="M24.11,22.94C23.63,22.94 23.24,23.33 23.24,23.81L23.24,37.65C23.24,37.88 23.33,38.1 23.49,38.27C23.66,38.43 23.88,38.52 24.11,38.52L35.36,38.52C35.83,38.52 36.22,38.13 36.22,37.65L36.22,23.81C36.22,23.33 35.83,22.94 35.36,22.94L24.11,22.94ZM34.46,26.07C34.63,26.24 34.62,26.51 34.46,26.68L29.76,31.33C29.68,31.42 29.56,31.46 29.45,31.46C29.33,31.46 29.22,31.41 29.14,31.32L26.94,28.98L25.02,30.88C24.91,30.99 24.75,31.04 24.6,31C24.45,30.96 24.33,30.84 24.29,30.69C24.25,30.54 24.3,30.38 24.41,30.27L26.65,28.06C26.73,27.97 26.84,27.93 26.96,27.93C27.08,27.93 27.19,27.98 27.27,28.07L29.46,30.41L33.85,26.06C34.02,25.9 34.29,25.9 34.46,26.07L34.46,26.07Z" fill="#0B77FF" stroke-width="1.0" />
    <path d="M24.11,35.92C24.11,35.45 24.46,35.06 24.89,35.06L31.97,35.06C32.41,35.06 32.76,35.45 32.76,35.92C32.76,36.4 32.41,36.79 31.97,36.79L24.89,36.79C24.46,36.79 24.11,36.4 24.11,35.92ZM33.62,35.92C33.62,35.45 34.01,35.06 34.49,35.06C34.97,35.06 35.36,35.45 35.36,35.92C35.36,36.4 34.97,36.79 34.49,36.79C34.01,36.79 33.62,36.4 33.62,35.92Z" fill="#FFFFFF" stroke-width="1.0" />
    <path d="M23.12,88.2L38.07,88.2A8,8 0,0 1,46.07 96.2L46.07,111.15A8,8 0,0 1,38.07 119.15L23.12,119.15A8,8 0,0 1,15.12 111.15L15.12,96.2A8,8 0,0 1,23.12 88.2z" fill="#FFE3DB" stroke-width="1.0" />
    <path d="M38.5,109.35L37.84,98.18C37.79,97.17 36.95,96.38 35.94,96.38L25.22,96.38C24.21,96.38 23.38,97.17 23.32,98.18L22.66,109.35C22.63,109.88 22.81,110.39 23.17,110.77C23.53,111.15 24.03,111.37 24.56,111.37L36.6,111.37C37.12,111.37 37.63,111.16 37.99,110.77C38.35,110.39 38.54,109.88 38.5,109.35ZM35.57,101.2C35.34,103.81 33.2,105.86 30.6,105.86C28.01,105.86 25.9,103.84 25.64,101.25C25.39,101.03 25.24,100.72 25.24,100.38C25.24,99.79 25.72,99.32 26.31,99.32C26.9,99.32 27.38,99.79 27.38,100.38C27.38,100.65 27.29,100.91 27.11,101.12C27.3,102.95 28.8,104.38 30.6,104.38C32.41,104.38 33.88,102.97 34.09,101.17C33.89,100.96 33.78,100.68 33.78,100.38C33.77,99.99 33.97,99.62 34.3,99.43C34.64,99.23 35.06,99.23 35.39,99.43C35.73,99.62 35.93,99.99 35.92,100.38C35.92,100.69 35.8,100.99 35.57,101.2L35.57,101.2Z" fill="#F23D4F" stroke-width="1.0" />
    <path d="M38.25,97.83C38.19,96.79 37.33,95.99 36.29,95.99L25.29,95.99C24.25,95.99 23.39,96.79 23.33,97.83L22.66,109.3C22.63,109.84 22.82,110.37 23.19,110.76C23.56,111.15 24.07,111.37 24.61,111.37L31.11,111.37C34.77,109.79 37.51,106.61 38.54,102.76L38.25,97.83ZM35.92,100.93C35.67,103.61 33.48,105.72 30.81,105.72C28.15,105.72 25.98,103.64 25.72,100.98C25.46,100.76 25.31,100.43 25.31,100.09C25.31,99.49 25.8,99 26.41,99C27.01,99 27.51,99.49 27.51,100.09C27.51,100.37 27.41,100.64 27.23,100.85C27.43,102.73 28.96,104.19 30.81,104.19C32.67,104.19 34.18,102.75 34.4,100.9C34.19,100.68 34.07,100.39 34.07,100.09C34.06,99.69 34.27,99.31 34.61,99.11C34.96,98.9 35.39,98.9 35.73,99.11C36.08,99.31 36.28,99.69 36.27,100.09C36.27,100.41 36.14,100.72 35.92,100.93L35.92,100.93Z" fill="#FC4956" stroke-width="1.0" />
    <path d="M60.02,88.2L74.98,88.2A8,8 0,0 1,82.98 96.2L82.98,111.15A8,8 0,0 1,74.98 119.15L60.02,119.15A8,8 0,0 1,52.02 111.15L52.02,96.2A8,8 0,0 1,60.02 88.2z" fill="#E9F4FF" stroke-width="1.0" />
    <path d="M67.5,93.91C62.11,93.91 57.74,98.28 57.74,103.68C57.74,109.07 62.11,113.44 67.5,113.44C72.89,113.44 77.26,109.07 77.26,103.68C77.26,101.09 76.23,98.6 74.4,96.77C72.57,94.94 70.09,93.91 67.5,93.91ZM72.31,100.21L69.62,108.62C69.45,109.15 68.96,109.51 68.4,109.51L68.37,109.51C67.8,109.5 67.3,109.11 67.16,108.55L66.18,104.84L62.37,103.81C61.82,103.66 61.44,103.18 61.42,102.61C61.4,102.04 61.76,101.54 62.3,101.36L70.69,98.6C71.14,98.45 71.65,98.57 71.99,98.91C72.33,99.25 72.45,99.75 72.31,100.21L72.31,100.21Z" fill="#2595E8" stroke-width="1.0" />
    <path d="M96.93,88.2L111.88,88.2A8,8 0,0 1,119.88 96.2L119.88,111.15A8,8 0,0 1,111.88 119.15L96.93,119.15A8,8 0,0 1,88.93 111.15L88.93,96.2A8,8 0,0 1,96.93 88.2z" fill="#E3FFF3" stroke-width="1.0" />
    <path d="M110.08,94.72L98.74,94.72C97.43,94.71 96.35,95.76 96.33,97.07L96.33,108.7C96.34,109.06 96.48,109.4 96.74,109.65C96.99,109.89 97.34,110.03 97.69,110.03L111.12,110.03C111.48,110.03 111.82,109.89 112.08,109.65C112.33,109.4 112.48,109.06 112.48,108.7L112.48,97.07C112.46,95.76 111.39,94.71 110.08,94.72L110.08,94.72ZM99.21,107.69C98.51,107.67 97.95,107.09 97.97,106.39C97.98,105.69 98.55,105.13 99.26,105.13C99.96,105.14 100.52,105.71 100.52,106.41C100.52,106.75 100.38,107.08 100.13,107.32C99.89,107.56 99.56,107.69 99.21,107.69ZM109.56,107.69C108.85,107.67 108.3,107.09 108.31,106.39C108.32,105.69 108.9,105.13 109.6,105.13C110.3,105.14 110.87,105.71 110.87,106.41C110.86,106.75 110.72,107.08 110.48,107.32C110.23,107.56 109.9,107.69 109.56,107.69ZM111.03,101.61C111.03,101.82 110.94,102.01 110.8,102.16C110.65,102.3 110.45,102.38 110.25,102.38L98.66,102.38C98.23,102.38 97.89,102.04 97.88,101.61L97.88,98.77C97.89,97.9 98.61,97.2 99.47,97.21L109.44,97.21C110.31,97.2 111.03,97.9 111.04,98.77L111.03,101.61Z" fill="#05C46D" stroke-width="1.0" />
    <path d="M99.13,111.09L109.69,111.09C110.2,111.09 110.46,111.35 110.46,111.86L110.46,111.86C110.46,112.37 110.2,112.63 109.69,112.63L99.13,112.63C98.61,112.63 98.36,112.37 98.36,111.86L98.36,111.86C98.36,111.35 98.61,111.09 99.13,111.09Z" fill="#05C46D" stroke-width="1.0" />
    <path d="M112.48,97.07C112.46,95.76 111.39,94.71 110.08,94.72L98.74,94.72C97.43,94.71 96.35,95.76 96.33,97.07L96.33,108.7C96.34,109.06 96.48,109.4 96.74,109.65C96.99,109.89 97.34,110.03 97.69,110.03L106.06,110.03C107.16,109.36 108.16,108.53 109.04,107.59C108.56,107.39 108.25,106.93 108.24,106.41C108.25,106.07 108.39,105.74 108.64,105.5C108.88,105.26 109.21,105.13 109.56,105.13C109.94,105.13 110.31,105.3 110.57,105.59C111.52,104.09 112.17,102.43 112.48,100.68L112.48,97.07ZM99.21,107.69C98.51,107.67 97.95,107.09 97.97,106.39C97.98,105.69 98.55,105.13 99.26,105.13C99.96,105.14 100.52,105.71 100.52,106.41C100.52,106.75 100.38,107.08 100.13,107.32C99.89,107.56 99.56,107.69 99.21,107.69ZM111.03,101.61C111.03,101.82 110.95,102.01 110.8,102.16C110.65,102.3 110.46,102.38 110.25,102.38L98.66,102.38C98.23,102.38 97.89,102.04 97.88,101.61L97.88,98.77C97.89,97.9 98.61,97.2 99.47,97.21L109.44,97.21C110.31,97.2 111.03,97.9 111.04,98.77L111.03,101.61ZM103.91,111.09L99.13,111.09C98.89,111.09 98.67,111.2 98.52,111.38C98.38,111.57 98.33,111.81 98.38,112.03C98.54,112.03 98.7,112.04 98.87,112.04C100.59,112.05 102.31,111.72 103.91,111.09Z" fill="#1DCE75" stroke-width="1.0" />
    <path d="M97.97,106.83C97.93,106.7 97.9,106.56 97.9,106.41C97.91,105.77 98.39,105.23 99.03,105.14C99.67,105.05 100.28,105.43 100.47,106.04C102.41,105.22 104.14,103.97 105.52,102.38L98.66,102.38C98.23,102.38 97.89,102.04 97.88,101.61L97.88,98.77C97.89,97.9 98.61,97.2 99.47,97.21L108.36,97.21C108.6,96.4 108.76,95.57 108.85,94.72L98.74,94.72C97.43,94.71 96.35,95.76 96.33,97.07L96.33,107.07C96.89,107.03 97.43,106.95 97.97,106.83L97.97,106.83Z" fill="#3CD38E" stroke-width="1.0" />
    <path d="M73.69,51.3L61.31,51.3C56.18,51.3 52.03,55.45 52.03,60.58L52.03,72.96C52.03,78.09 56.18,82.25 61.31,82.25L73.69,82.25C78.82,82.25 82.98,78.09 82.98,72.96L82.98,60.58C82.98,55.45 78.82,51.3 73.69,51.3Z" fill="#D8F4EE" stroke-width="1.0" />
    <path d="M62.31,62.36L65.88,66.77L62.31,71.19C61.13,72.65 62.1,74.92 63.91,74.92L71.1,74.92C72.9,74.92 73.87,72.65 72.69,71.19L69.12,66.77L72.69,62.36C73.87,60.9 72.9,58.62 71.1,58.62L63.91,58.62C62.1,58.62 61.13,60.9 62.31,62.36ZM66.59,66.3L64.43,63.61C63.72,62.73 65.15,62.37 66.17,63.05C67.1,63.66 67.88,63.63 68.15,63.62L68.23,63.61C68.26,63.61 68.41,63.58 68.61,63.53C69.44,63.33 71.22,62.91 70.65,63.61L68.5,66.3C67.99,66.93 67.09,66.93 66.59,66.3L66.59,66.3Z" fill="#01C99A" stroke-width="1.0" />
    <path d="M59.35,59.84C59.35,59.17 59.9,58.62 60.57,58.62L74.43,58.62C75.1,58.62 75.65,59.17 75.65,59.84C75.65,60.52 75.1,61.07 74.43,61.07L60.57,61.07C59.9,61.07 59.35,60.52 59.35,59.84ZM75.65,73.7C75.65,74.37 75.1,74.92 74.43,74.92L60.57,74.92C59.9,74.92 59.35,74.37 59.35,73.7C59.35,73.02 59.9,72.48 60.57,72.48L74.43,72.48C75.1,72.48 75.65,73.02 75.65,73.7Z" fill="#75E8CD" stroke-width="1.0" />
    <path d="M64.27,69.72L65.63,67.91C65.8,67.69 65.99,67.67 66.21,67.83L66.21,67.83C66.42,68 66.45,68.19 66.29,68.4L64.92,70.21C64.76,70.43 64.57,70.46 64.35,70.29L64.35,70.29C64.13,70.13 64.1,69.94 64.27,69.72Z" fill="#FFFFFF" stroke-width="1.0" />
    <path d="M64.32,71.01L64.32,71.01C64.16,71.22 63.97,71.25 63.75,71.09L63.75,71.09C63.53,70.92 63.51,70.73 63.67,70.52L63.67,70.52C63.83,70.3 64.02,70.27 64.24,70.44L64.24,70.44C64.46,70.6 64.49,70.79 64.32,71.01Z" fill="#FFFFFF" stroke-width="1.0" />
    <path d="M36.79,51.3L24.41,51.3C19.28,51.3 15.12,55.45 15.12,60.58L15.12,72.96C15.12,78.09 19.28,82.25 24.41,82.25L36.79,82.25C41.91,82.25 46.07,78.09 46.07,72.96L46.07,60.58C46.07,55.45 41.91,51.3 36.79,51.3Z" fill="#FFEFCF" stroke-width="1.0" />
    <path d="M25.15,59.64C25.27,59.35 25.56,59.17 25.87,59.17L29.29,59.17C29.72,59.17 30.07,59.52 30.07,59.95L30.07,63.89C30.07,64.32 29.72,64.67 29.29,64.67L24.18,64.67C23.92,64.67 23.67,64.54 23.53,64.32C23.38,64.1 23.36,63.82 23.46,63.58L25.15,59.64L25.15,59.64ZM31.65,59.95C31.65,59.52 32,59.17 32.43,59.17L35.85,59.17C36.16,59.17 36.45,59.35 36.57,59.64L38.26,63.58C38.36,63.82 38.34,64.1 38.19,64.32C38.05,64.54 37.8,64.67 37.53,64.67L32.43,64.67C32,64.67 31.65,64.32 31.65,63.89L31.65,59.95Z" fill="#FEBF60" stroke-width="1.0" />
    <path d="M24.56,65.46L37.15,65.46C38.02,65.46 38.73,66.17 38.73,67.04L38.73,73.33C38.73,74.2 38.02,74.9 37.15,74.9L24.56,74.9C23.69,74.9 22.99,74.2 22.99,73.33L22.99,67.04C22.99,66.17 23.69,65.46 24.56,65.46ZM32.23,70.96C32.97,69.91 32.79,68.46 31.8,67.62C30.82,66.79 29.35,66.85 28.44,67.76C27.53,68.68 27.46,70.14 28.3,71.13C29.13,72.12 30.59,72.3 31.64,71.55L33.08,72.99C33.18,73.1 33.34,73.15 33.49,73.11C33.63,73.07 33.75,72.96 33.79,72.81C33.82,72.66 33.78,72.51 33.66,72.4L32.23,70.96L32.23,70.96ZM31.86,69.52C31.87,70.12 31.56,70.68 31.04,70.99C30.52,71.29 29.88,71.29 29.36,70.99C28.84,70.68 28.53,70.12 28.54,69.52C28.54,68.61 29.28,67.86 30.2,67.86C31.11,67.86 31.86,68.61 31.86,69.52L31.86,69.52Z" fill="#FA8A0C" stroke-width="1.0" />
    <path d="M29.29,69C29.29,68.79 29.46,68.61 29.68,68.61C29.9,68.61 30.07,68.79 30.07,69C30.07,69.22 29.9,69.4 29.68,69.4C29.46,69.4 29.29,69.22 29.29,69L29.29,69Z" fill="#FFFFFF" stroke-width="1.0" />
  </g>
</svg>
